<svg xmlns="http://www.w3.org/2000/svg" xmlns:xlink="http://www.w3.org/1999/xlink" width="1686" zoomAndPan="magnify" viewBox="0 0 1264.5 332.250003" height="443" preserveAspectRatio="xMidYMid meet" version="1.0"><defs><g/><clipPath id="962c479484"><rect x="0" width="944" y="0" height="148"/></clipPath></defs><g transform="matrix(1, 0, 0, 1, 273, 32)"><g clip-path="url(#962c479484)"><g fill="#fefefe" fill-opacity="1"><g transform="translate(2.122765, 117.267862)"><g><path d="M 37.5625 1.4375 C 30.925781 1.4375 24.503906 0.539062 18.296875 -1.25 C 12.097656 -3.050781 7.117188 -5.394531 3.359375 -8.28125 L 9.96875 -22.921875 C 13.5625 -20.285156 17.835938 -18.164062 22.796875 -16.5625 C 27.765625 -14.957031 32.726562 -14.15625 37.6875 -14.15625 C 43.207031 -14.15625 47.285156 -14.972656 49.921875 -16.609375 C 52.566406 -18.253906 53.890625 -20.4375 53.890625 -23.15625 C 53.890625 -25.15625 53.109375 -26.816406 51.546875 -28.140625 C 49.984375 -29.460938 47.984375 -30.523438 45.546875 -31.328125 C 43.109375 -32.128906 39.804688 -33.007812 35.640625 -33.96875 C 29.242188 -35.488281 24.003906 -37.007812 19.921875 -38.53125 C 15.835938 -40.050781 12.335938 -42.488281 9.421875 -45.84375 C 6.503906 -49.207031 5.046875 -53.6875 5.046875 -59.28125 C 5.046875 -64.164062 6.363281 -68.585938 9 -72.546875 C 11.644531 -76.503906 15.625 -79.644531 20.9375 -81.96875 C 26.257812 -84.289062 32.757812 -85.453125 40.4375 -85.453125 C 45.800781 -85.453125 51.039062 -84.8125 56.15625 -83.53125 C 61.28125 -82.25 65.765625 -80.410156 69.609375 -78.015625 L 63.609375 -63.25 C 55.847656 -67.644531 48.085938 -69.84375 40.328125 -69.84375 C 34.890625 -69.84375 30.867188 -68.960938 28.265625 -67.203125 C 25.660156 -65.441406 24.359375 -63.125 24.359375 -60.25 C 24.359375 -57.363281 25.859375 -55.222656 28.859375 -53.828125 C 31.859375 -52.429688 36.441406 -51.050781 42.609375 -49.6875 C 49.003906 -48.164062 54.242188 -46.644531 58.328125 -45.125 C 62.410156 -43.601562 65.910156 -41.203125 68.828125 -37.921875 C 71.742188 -34.640625 73.203125 -30.203125 73.203125 -24.609375 C 73.203125 -19.804688 71.863281 -15.421875 69.1875 -11.453125 C 66.507812 -7.492188 62.488281 -4.351562 57.125 -2.03125 C 51.769531 0.28125 45.25 1.4375 37.5625 1.4375 Z M 37.5625 1.4375 "/></g></g></g><g fill="#fefefe" fill-opacity="1"><g transform="translate(78.684312, 117.267862)"><g><path d="M 40.5625 -33 L 29.28125 -21.25 L 29.28125 0 L 9.96875 0 L 9.96875 -84.015625 L 29.28125 -84.015625 L 29.28125 -44.765625 L 66.484375 -84.015625 L 88.09375 -84.015625 L 53.28125 -46.5625 L 90.125 0 L 67.453125 0 Z M 40.5625 -33 "/></g></g></g><g fill="#fefefe" fill-opacity="1"><g transform="translate(167.486102, 117.267862)"><g><path d="M 47.28125 1.4375 C 35.28125 1.4375 25.9375 -1.878906 19.25 -8.515625 C 12.570312 -15.160156 9.234375 -24.644531 9.234375 -36.96875 L 9.234375 -84.015625 L 28.6875 -84.015625 L 28.6875 -37.6875 C 28.6875 -22.644531 34.925781 -15.125 47.40625 -15.125 C 53.488281 -15.125 58.128906 -16.941406 61.328125 -20.578125 C 64.523438 -24.222656 66.125 -29.925781 66.125 -37.6875 L 66.125 -84.015625 L 85.328125 -84.015625 L 85.328125 -36.96875 C 85.328125 -24.644531 81.984375 -15.160156 75.296875 -8.515625 C 68.617188 -1.878906 59.28125 1.4375 47.28125 1.4375 Z M 47.28125 1.4375 "/></g></g></g><g fill="#fefefe" fill-opacity="1"><g transform="translate(262.047999, 117.267862)"><g><path d="M 87.015625 -84.015625 L 87.015625 0 L 71.046875 0 L 29.15625 -51 L 29.15625 0 L 9.96875 0 L 9.96875 -84.015625 L 26.046875 -84.015625 L 67.8125 -33 L 67.8125 -84.015625 Z M 87.015625 -84.015625 "/></g></g></g><g fill="#fefefe" fill-opacity="1"><g transform="translate(359.00994, 117.267862)"><g><path d="M 40.5625 -33 L 29.28125 -21.25 L 29.28125 0 L 9.96875 0 L 9.96875 -84.015625 L 29.28125 -84.015625 L 29.28125 -44.765625 L 66.484375 -84.015625 L 88.09375 -84.015625 L 53.28125 -46.5625 L 90.125 0 L 67.453125 0 Z M 40.5625 -33 "/></g></g></g><g fill="#fefefe" fill-opacity="1"><g transform="translate(447.811729, 117.267862)"><g><path d="M 136.9375 -84.015625 L 109.453125 0 L 88.578125 0 L 70.09375 -56.890625 L 51 0 L 30.25 0 L 2.640625 -84.015625 L 22.796875 -84.015625 L 41.765625 -24.96875 L 61.5625 -84.015625 L 79.578125 -84.015625 L 98.765625 -24.484375 L 118.328125 -84.015625 Z M 136.9375 -84.015625 "/></g></g></g><g fill="#fefefe" fill-opacity="1"><g transform="translate(587.374548, 117.267862)"><g><path d="M 50.640625 1.4375 C 41.921875 1.4375 34.0625 -0.441406 27.0625 -4.203125 C 20.0625 -7.960938 14.582031 -13.140625 10.625 -19.734375 C 6.664062 -26.335938 4.6875 -33.757812 4.6875 -42 C 4.6875 -50.238281 6.664062 -57.660156 10.625 -64.265625 C 14.582031 -70.867188 20.0625 -76.050781 27.0625 -79.8125 C 34.0625 -83.570312 41.921875 -85.453125 50.640625 -85.453125 C 59.367188 -85.453125 67.210938 -83.570312 74.171875 -79.8125 C 81.128906 -76.050781 86.609375 -70.867188 90.609375 -64.265625 C 94.609375 -57.660156 96.609375 -50.238281 96.609375 -42 C 96.609375 -33.757812 94.609375 -26.335938 90.609375 -19.734375 C 86.609375 -13.140625 81.128906 -7.960938 74.171875 -4.203125 C 67.210938 -0.441406 59.367188 1.4375 50.640625 1.4375 Z M 50.640625 -15.125 C 55.609375 -15.125 60.09375 -16.265625 64.09375 -18.546875 C 68.09375 -20.828125 71.234375 -24.003906 73.515625 -28.078125 C 75.796875 -32.160156 76.9375 -36.800781 76.9375 -42 C 76.9375 -47.207031 75.796875 -51.847656 73.515625 -55.921875 C 71.234375 -60.003906 68.09375 -63.1875 64.09375 -65.46875 C 60.09375 -67.75 55.609375 -68.890625 50.640625 -68.890625 C 45.679688 -68.890625 41.203125 -67.75 37.203125 -65.46875 C 33.203125 -63.1875 30.0625 -60.003906 27.78125 -55.921875 C 25.5 -51.847656 24.359375 -47.207031 24.359375 -42 C 24.359375 -36.800781 25.5 -32.160156 27.78125 -28.078125 C 30.0625 -24.003906 33.203125 -20.828125 37.203125 -18.546875 C 41.203125 -16.265625 45.679688 -15.125 50.640625 -15.125 Z M 50.640625 -15.125 "/></g></g></g><g fill="#fefefe" fill-opacity="1"><g transform="translate(688.656577, 117.267862)"><g><path d="M 63.484375 0 L 47.28125 -23.40625 L 29.40625 -23.40625 L 29.40625 0 L 9.96875 0 L 9.96875 -84.015625 L 46.328125 -84.015625 C 53.765625 -84.015625 60.222656 -82.769531 65.703125 -80.28125 C 71.179688 -77.800781 75.398438 -74.28125 78.359375 -69.71875 C 81.328125 -65.164062 82.8125 -59.769531 82.8125 -53.53125 C 82.8125 -47.289062 81.3125 -41.910156 78.3125 -37.390625 C 75.3125 -32.867188 71.050781 -29.40625 65.53125 -27 L 84.375 0 Z M 63.125 -53.53125 C 63.125 -58.25 61.601562 -61.867188 58.5625 -64.390625 C 55.519531 -66.910156 51.082031 -68.171875 45.25 -68.171875 L 29.40625 -68.171875 L 29.40625 -38.890625 L 45.25 -38.890625 C 51.082031 -38.890625 55.519531 -40.164062 58.5625 -42.71875 C 61.601562 -45.28125 63.125 -48.882812 63.125 -53.53125 Z M 63.125 -53.53125 "/></g></g></g><g fill="#fefefe" fill-opacity="1"><g transform="translate(776.858355, 117.267862)"><g><path d="M 40.5625 -33 L 29.28125 -21.25 L 29.28125 0 L 9.96875 0 L 9.96875 -84.015625 L 29.28125 -84.015625 L 29.28125 -44.765625 L 66.484375 -84.015625 L 88.09375 -84.015625 L 53.28125 -46.5625 L 90.125 0 L 67.453125 0 Z M 40.5625 -33 "/></g></g></g><g fill="#fefefe" fill-opacity="1"><g transform="translate(865.660116, 117.267862)"><g><path d="M 37.5625 1.4375 C 30.925781 1.4375 24.503906 0.539062 18.296875 -1.25 C 12.097656 -3.050781 7.117188 -5.394531 3.359375 -8.28125 L 9.96875 -22.921875 C 13.5625 -20.285156 17.835938 -18.164062 22.796875 -16.5625 C 27.765625 -14.957031 32.726562 -14.15625 37.6875 -14.15625 C 43.207031 -14.15625 47.285156 -14.972656 49.921875 -16.609375 C 52.566406 -18.253906 53.890625 -20.4375 53.890625 -23.15625 C 53.890625 -25.15625 53.109375 -26.816406 51.546875 -28.140625 C 49.984375 -29.460938 47.984375 -30.523438 45.546875 -31.328125 C 43.109375 -32.128906 39.804688 -33.007812 35.640625 -33.96875 C 29.242188 -35.488281 24.003906 -37.007812 19.921875 -38.53125 C 15.835938 -40.050781 12.335938 -42.488281 9.421875 -45.84375 C 6.503906 -49.207031 5.046875 -53.6875 5.046875 -59.28125 C 5.046875 -64.164062 6.363281 -68.585938 9 -72.546875 C 11.644531 -76.503906 15.625 -79.644531 20.9375 -81.96875 C 26.257812 -84.289062 32.757812 -85.453125 40.4375 -85.453125 C 45.800781 -85.453125 51.039062 -84.8125 56.15625 -83.53125 C 61.28125 -82.25 65.765625 -80.410156 69.609375 -78.015625 L 63.609375 -63.25 C 55.847656 -67.644531 48.085938 -69.84375 40.328125 -69.84375 C 34.890625 -69.84375 30.867188 -68.960938 28.265625 -67.203125 C 25.660156 -65.441406 24.359375 -63.125 24.359375 -60.25 C 24.359375 -57.363281 25.859375 -55.222656 28.859375 -53.828125 C 31.859375 -52.429688 36.441406 -51.050781 42.609375 -49.6875 C 49.003906 -48.164062 54.242188 -46.644531 58.328125 -45.125 C 62.410156 -43.601562 65.910156 -41.203125 68.828125 -37.921875 C 71.742188 -34.640625 73.203125 -30.203125 73.203125 -24.609375 C 73.203125 -19.804688 71.863281 -15.421875 69.1875 -11.453125 C 66.507812 -7.492188 62.488281 -4.351562 57.125 -2.03125 C 51.769531 0.28125 45.25 1.4375 37.5625 1.4375 Z M 37.5625 1.4375 "/></g></g></g></g></g><g fill="#fefefe" fill-opacity="1"><g transform="translate(313.094448, 266.590946)"><g><path d="M 66.375 -22.4375 L 19.5625 -22.4375 L 9.484375 0 L 0.234375 0 L 38.640625 -84.015625 L 47.40625 -84.015625 L 85.8125 0 L 76.453125 0 Z M 63.125 -29.640625 L 42.96875 -74.765625 L 22.796875 -29.640625 Z M 63.125 -29.640625 "/></g></g></g><g fill="#fefefe" fill-opacity="1"><g transform="translate(399.141922, 266.590946)"><g><path d="M 50.171875 0.71875 C 41.847656 0.71875 34.34375 -1.117188 27.65625 -4.796875 C 20.976562 -8.484375 15.738281 -13.585938 11.9375 -20.109375 C 8.132812 -26.628906 6.234375 -33.925781 6.234375 -42 C 6.234375 -50.082031 8.132812 -57.382812 11.9375 -63.90625 C 15.738281 -70.425781 21 -75.523438 27.71875 -79.203125 C 34.445312 -82.890625 41.96875 -84.734375 50.28125 -84.734375 C 56.519531 -84.734375 62.28125 -83.691406 67.5625 -81.609375 C 72.84375 -79.523438 77.328125 -76.484375 81.015625 -72.484375 L 75.375 -66.84375 C 68.8125 -73.488281 60.53125 -76.8125 50.53125 -76.8125 C 43.882812 -76.8125 37.84375 -75.289062 32.40625 -72.25 C 26.96875 -69.207031 22.707031 -65.046875 19.625 -59.765625 C 16.539062 -54.484375 15 -48.5625 15 -42 C 15 -35.445312 16.539062 -29.53125 19.625 -24.25 C 22.707031 -18.96875 26.96875 -14.804688 32.40625 -11.765625 C 37.84375 -8.722656 43.882812 -7.203125 50.53125 -7.203125 C 60.613281 -7.203125 68.894531 -10.5625 75.375 -17.28125 L 81.015625 -11.640625 C 77.328125 -7.640625 72.820312 -4.578125 67.5 -2.453125 C 62.1875 -0.335938 56.410156 0.71875 50.171875 0.71875 Z M 50.171875 0.71875 "/></g></g></g><g fill="#fefefe" fill-opacity="1"><g transform="translate(485.429421, 266.590946)"><g><path d="M 66.375 -22.4375 L 19.5625 -22.4375 L 9.484375 0 L 0.234375 0 L 38.640625 -84.015625 L 47.40625 -84.015625 L 85.8125 0 L 76.453125 0 Z M 63.125 -29.640625 L 42.96875 -74.765625 L 22.796875 -29.640625 Z M 63.125 -29.640625 "/></g></g></g><g fill="#fefefe" fill-opacity="1"><g transform="translate(571.476883, 266.590946)"><g><path d="M 13.6875 -84.015625 L 47.890625 -84.015625 C 56.765625 -84.015625 64.601562 -82.234375 71.40625 -78.671875 C 78.207031 -75.109375 83.488281 -70.144531 87.25 -63.78125 C 91.007812 -57.425781 92.890625 -50.164062 92.890625 -42 C 92.890625 -33.84375 91.007812 -26.582031 87.25 -20.21875 C 83.488281 -13.863281 78.207031 -8.90625 71.40625 -5.34375 C 64.601562 -1.78125 56.765625 0 47.890625 0 L 13.6875 0 Z M 47.40625 -7.6875 C 54.769531 -7.6875 61.210938 -9.144531 66.734375 -12.0625 C 72.253906 -14.976562 76.53125 -19.015625 79.5625 -24.171875 C 82.601562 -29.335938 84.125 -35.28125 84.125 -42 C 84.125 -48.726562 82.601562 -54.671875 79.5625 -59.828125 C 76.53125 -64.984375 72.253906 -69.019531 66.734375 -71.9375 C 61.210938 -74.863281 54.769531 -76.328125 47.40625 -76.328125 L 22.5625 -76.328125 L 22.5625 -7.6875 Z M 47.40625 -7.6875 "/></g></g></g><g fill="#fefefe" fill-opacity="1"><g transform="translate(670.6055, 266.590946)"><g><path d="M 73.09375 -7.6875 L 73.09375 0 L 13.6875 0 L 13.6875 -84.015625 L 71.296875 -84.015625 L 71.296875 -76.328125 L 22.5625 -76.328125 L 22.5625 -46.453125 L 66.015625 -46.453125 L 66.015625 -38.890625 L 22.5625 -38.890625 L 22.5625 -7.6875 Z M 73.09375 -7.6875 "/></g></g></g><g fill="#fefefe" fill-opacity="1"><g transform="translate(750.892479, 266.590946)"><g><path d="M 100.9375 -84.015625 L 100.9375 0 L 92.40625 0 L 92.40625 -67.203125 L 59.40625 -10.6875 L 55.203125 -10.6875 L 22.203125 -66.84375 L 22.203125 0 L 13.6875 0 L 13.6875 -84.015625 L 21 -84.015625 L 57.484375 -21.71875 L 93.609375 -84.015625 Z M 100.9375 -84.015625 "/></g></g></g><g fill="#fefefe" fill-opacity="1"><g transform="translate(865.50246, 266.590946)"><g><path d="M 42.484375 -29.046875 L 42.484375 0 L 33.71875 0 L 33.71875 -29.046875 L 0.125 -84.015625 L 9.59375 -84.015625 L 38.40625 -36.84375 L 67.203125 -84.015625 L 76.09375 -84.015625 Z M 42.484375 -29.046875 "/></g></g></g><path fill="#ffffff" d="M 120.273438 63.691406 C 115.355469 64.164062 109.507812 65.46875 103.816406 67.367188 C 100.792969 68.375 93.0625 72.128906 92.433594 72.890625 C 91.980469 73.441406 92.003906 73.875 92.613281 76.300781 C 93.148438 78.429688 93.3125 80.339844 93.3125 84.507812 C 93.3125 92.464844 92.558594 95.710938 91.828125 90.890625 C 91.53125 88.9375 89.851562 84.515625 88.378906 81.820312 C 84.238281 74.234375 76.820312 68.25 68.46875 65.753906 C 57.585938 62.503906 47.863281 63.839844 38.257812 69.90625 C 34.378906 72.355469 29.085938 78.464844 27.640625 82.152344 C 27.371094 82.851562 27.035156 83.582031 26.902344 83.78125 C 26.367188 84.578125 25.117188 89.371094 24.757812 92.03125 C 23.871094 98.546875 24.734375 105.824219 27.324219 113.621094 C 28.390625 116.832031 29.863281 119.582031 30.582031 119.71875 C 30.976562 119.792969 31.65625 119.109375 32.5625 117.730469 C 37.296875 110.507812 44.160156 104.652344 51.621094 101.472656 L 54.589844 100.210938 L 52.207031 102.671875 C 49.15625 105.824219 47.121094 108.308594 44.238281 112.390625 C 41.089844 116.847656 41.34375 116.414062 38.328125 122.503906 C 35.652344 127.902344 33.671875 133.226562 32.535156 138.066406 L 31.558594 142.226562 C 29.523438 150.898438 29.773438 163.242188 32.179688 172.804688 C 33.636719 178.59375 34.269531 180.316406 37.175781 186.375 C 41.15625 194.683594 46.878906 202.765625 48.375 202.191406 C 49.242188 201.859375 49.128906 200.890625 47.902344 198.15625 C 46.683594 195.433594 45.023438 190.121094 44.054688 185.832031 C 43.539062 183.550781 43.40625 181.441406 43.425781 175.882812 C 43.445312 169.59375 43.554688 168.332031 44.433594 164.3125 C 47.679688 149.488281 54.535156 142.332031 66.171875 141.613281 C 74.042969 141.128906 83.941406 145.570312 90.484375 152.519531 C 95.800781 158.167969 99.253906 164.792969 101.433594 173.53125 C 104.757812 186.832031 104.757812 197.394531 101.4375 209.9375 C 100.25 214.417969 101.023438 215.648438 103.179688 212.703125 C 105.121094 210.054688 111.96875 202.886719 115.847656 199.445312 C 117.894531 197.632812 119.65625 196.148438 119.769531 196.148438 C 119.882812 196.148438 119.414062 196.921875 118.726562 197.867188 C 112.792969 206.070312 105.449219 222.078125 102.417969 233.421875 C 101.222656 237.890625 100.886719 239.578125 100.160156 244.820312 C 98.683594 255.460938 101.277344 264.410156 107.902344 271.5 C 109.578125 273.296875 114.769531 276.847656 115.71875 276.847656 C 116.03125 276.847656 116.667969 276.003906 117.1875 274.90625 C 119.46875 270.085938 124.605469 266.4375 129.625 266.078125 C 135.878906 265.632812 141.316406 268.679688 144.023438 274.15625 C 144.988281 276.113281 145.542969 276.847656 146.050781 276.847656 C 146.726562 276.847656 149.605469 275.117188 152.046875 273.242188 C 155.242188 270.789062 159.207031 264.574219 160.832031 259.476562 C 161.617188 257.007812 161.695312 256.175781 161.660156 250.25 C 161.621094 243.53125 161.207031 240.570312 159.308594 233.429688 C 156.316406 222.199219 149.433594 207.074219 143.359375 198.386719 C 142.761719 197.527344 142.34375 196.753906 142.429688 196.664062 C 142.941406 196.15625 153.617188 206.722656 158.136719 212.214844 C 160.804688 215.457031 161.652344 214.859375 160.4375 210.589844 C 156.890625 198.128906 156.878906 185.03125 160.398438 172.988281 C 161.953125 167.675781 162.394531 166.480469 164.238281 162.671875 C 166.480469 158.03125 167.179688 157.039062 171.261719 152.6875 C 176.359375 147.257812 181.554688 144.152344 188.410156 142.433594 C 192.9375 141.300781 196.058594 141.25 199.953125 142.242188 C 203.769531 143.21875 206.421875 144.746094 209.316406 147.636719 C 213.007812 151.328125 215.632812 156.613281 216.867188 162.855469 C 217.082031 163.949219 217.503906 166.097656 217.800781 167.632812 C 218.417969 170.8125 218.523438 181.226562 217.964844 183.84375 C 217.773438 184.738281 217.449219 186.417969 217.242188 187.578125 C 216.761719 190.304688 214.589844 196.789062 213.195312 199.664062 C 212.109375 201.898438 212.058594 203.023438 213.042969 203.023438 C 213.324219 203.023438 214.445312 201.921875 215.535156 200.582031 C 223.441406 190.816406 228.144531 180.582031 230.546875 167.921875 C 231.304688 163.917969 231.402344 148.785156 230.695312 144.757812 C 229.378906 137.277344 225.976562 126.953125 223.058594 121.597656 C 222.460938 120.503906 221.808594 119.230469 221.605469 118.765625 C 220.269531 115.730469 213.367188 106.527344 208.980469 101.933594 L 207.304688 100.183594 L 208.570312 100.71875 C 210.082031 101.359375 213.527344 103.035156 214.542969 103.628906 C 219.296875 106.394531 225.652344 112.363281 228.667969 116.890625 C 229.660156 118.382812 230.746094 119.652344 231.082031 119.71875 C 232.195312 119.929688 234.65625 113.914062 236.109375 107.4375 C 237.246094 102.386719 237.351562 91.5625 236.300781 88.125 C 235.144531 84.335938 234.199219 82.15625 232.441406 79.238281 C 230.4375 75.902344 229.21875 74.523438 225.699219 71.625 C 216.820312 64.308594 205.269531 62.21875 193.382812 65.769531 C 185.484375 68.128906 178.097656 73.890625 173.769531 81.066406 C 171.425781 84.953125 169.535156 90.308594 169.5 93.160156 C 169.480469 94.964844 169.105469 93.949219 168.5625 90.605469 C 167.726562 85.457031 168.070312 79.742188 169.511719 74.75 C 169.894531 73.429688 169.859375 73.265625 169.074219 72.621094 C 166.933594 70.863281 158.625 67.355469 153.203125 65.914062 C 145.597656 63.894531 143.714844 63.667969 133.300781 63.53125 C 127.828125 63.457031 121.964844 63.53125 120.273438 63.691406 M 99.703125 117.175781 C 107.949219 124.054688 117.011719 135.660156 122.238281 146.03125 C 123.644531 148.820312 124.984375 151.585938 125.21875 152.183594 C 127.300781 157.503906 127.90625 159.230469 128.765625 162.3125 C 129.097656 163.503906 129.601562 165.246094 129.886719 166.179688 C 130.171875 167.113281 130.40625 168.203125 130.40625 168.601562 C 130.40625 169.914062 131.042969 169.75 131.292969 168.371094 C 131.78125 165.648438 134.824219 156.089844 136.332031 152.539062 C 137.488281 149.816406 140.363281 144.089844 141.601562 142.046875 C 142.207031 141.050781 142.8125 139.996094 142.953125 139.703125 C 143.574219 138.414062 147.414062 133.039062 150.269531 129.464844 C 151.984375 127.320312 155.53125 123.453125 158.152344 120.871094 C 160.773438 118.285156 162.875 116.171875 162.824219 116.171875 C 162.773438 116.171875 161.6875 116.511719 160.410156 116.933594 C 152.003906 119.691406 141.628906 125.199219 134.105469 130.90625 C 132.457031 132.15625 131.019531 133.179688 130.910156 133.179688 C 130.800781 133.179688 129.542969 132.3125 128.117188 131.25 C 118.726562 124.277344 110.101562 119.726562 100.246094 116.546875 L 98.132812 115.863281 Z M 62.617188 163.8125 C 62.121094 164.3125 63.414062 170.058594 65.078125 174.75 C 66.136719 177.730469 68.210938 182.003906 69.40625 183.660156 C 69.835938 184.257812 70.402344 185.179688 70.667969 185.710938 C 71.488281 187.367188 75.925781 192.652344 78.339844 194.847656 C 82.71875 198.828125 90.980469 204.109375 92.839844 204.109375 C 93.859375 204.109375 93.941406 203.414062 93.296875 200.277344 C 91.285156 190.476562 86.507812 181.863281 78.859375 174.25 C 72.410156 167.832031 64.003906 162.429688 62.617188 163.8125 M 194.867188 165.042969 C 188.941406 168.253906 180.707031 175.609375 177.125 180.886719 C 173.226562 186.640625 171.203125 190.820312 169.339844 196.960938 C 168.113281 201.003906 167.9375 203.84375 168.894531 204.039062 C 170.792969 204.429688 181.238281 197.480469 185.464844 193.015625 C 189.277344 188.988281 193.878906 181.839844 196.042969 176.574219 C 197.695312 172.5625 199.230469 166.761719 199.09375 165.078125 C 198.941406 163.269531 198.15625 163.261719 194.867188 165.042969 M 20.859375 177.417969 C 19.90625 178.664062 17.570312 186.648438 16.410156 192.628906 C 15.375 197.945312 15.375 210.105469 16.40625 215.113281 C 17.945312 222.589844 19.6875 227.582031 22.867188 233.601562 C 24.429688 236.5625 25.148438 237.582031 25.667969 237.582031 C 26.269531 237.582031 26.375 237.285156 26.441406 235.410156 C 26.550781 232.449219 27.285156 227.269531 27.597656 227.269531 C 27.875 227.269531 30.054688 230.125 30.8125 231.484375 C 31.679688 233.03125 37.09375 238.472656 39.886719 240.59375 C 45.125 244.582031 53.835938 248.980469 56.5 248.980469 C 57.757812 248.980469 57.820312 248.175781 56.792969 245.316406 C 55.996094 243.089844 55.546875 240.296875 55.992188 240.296875 C 56.90625 240.296875 64.53125 242.933594 67.765625 244.371094 C 73.746094 247.023438 77.453125 249.371094 83.988281 254.636719 C 85.242188 255.648438 86.253906 255.582031 86.253906 254.484375 C 86.253906 253.265625 83.136719 247.402344 80.824219 244.277344 C 78.304688 240.875 74.195312 236.695312 71.953125 235.257812 C 71.15625 234.746094 69.933594 233.898438 69.242188 233.375 C 68.546875 232.851562 67.246094 232.035156 66.351562 231.558594 C 63.207031 229.894531 52.386719 223.226562 49.34375 221.078125 C 40.953125 215.148438 35.007812 209.21875 30.746094 202.527344 C 27.070312 196.757812 23.863281 187.640625 22.914062 180.289062 C 22.726562 178.832031 22.480469 177.488281 22.367188 177.304688 C 22.070312 176.824219 21.265625 176.886719 20.859375 177.417969 M 239.324219 177.894531 C 239.128906 178.40625 238.96875 179.378906 238.96875 180.0625 C 238.96875 181.285156 238.691406 182.703125 237.625 186.917969 C 235.289062 196.175781 230.132812 205.328125 223.5625 211.894531 C 218.15625 217.296875 208.4375 224.3125 199.929688 228.953125 C 189.492188 234.644531 183.757812 239.574219 179.359375 246.628906 C 177.210938 250.074219 175.277344 254.019531 175.277344 254.957031 C 175.277344 256.21875 176.410156 255.863281 178.761719 253.867188 C 180.097656 252.738281 181.839844 251.378906 182.632812 250.847656 C 188.210938 247.140625 191.375 245.417969 196.269531 243.429688 C 198.890625 242.363281 200.378906 241.875 205.40625 240.429688 C 205.902344 240.289062 206.039062 240.46875 206.035156 241.269531 C 206.035156 242.726562 205.402344 244.960938 204.542969 246.554688 C 203.136719 249.167969 204.25 249.578125 208.546875 248.039062 C 213.929688 246.105469 218.75 243.265625 223.589844 239.179688 C 227.316406 236.03125 228.585938 234.683594 231.554688 230.707031 C 232.890625 228.914062 234.113281 227.402344 234.265625 227.34375 C 234.589844 227.21875 235.3125 232.175781 235.445312 235.40625 C 235.570312 238.519531 236.316406 238.5 238.121094 235.339844 C 239.78125 232.441406 242.226562 227.144531 242.226562 226.449219 C 242.226562 226.183594 242.375 225.8125 242.554688 225.621094 C 242.96875 225.183594 245.121094 217.648438 245.121094 216.632812 C 245.121094 216.210938 245.363281 214.730469 245.660156 213.335938 C 246.019531 211.625 246.195312 208.636719 246.199219 204.109375 C 246.199219 197.855469 245.792969 193.933594 244.558594 188.285156 C 244.144531 186.382812 241.386719 177.871094 241.039062 177.417969 C 240.472656 176.683594 239.703125 176.898438 239.324219 177.894531 " fill-opacity="1" fill-rule="evenodd"/></svg>