<svg xmlns="http://www.w3.org/2000/svg" xmlns:xlink="http://www.w3.org/1999/xlink" width="1686" zoomAndPan="magnify" viewBox="0 0 1264.5 332.250003" height="443" preserveAspectRatio="xMidYMid meet" version="1.0"><defs><g/><clipPath id="8a48a00d6d"><rect x="0" width="944" y="0" height="148"/></clipPath></defs><g transform="matrix(1, 0, 0, 1, 273, 32)"><g clip-path="url(#8a48a00d6d)"><g fill="#000000" fill-opacity="1"><g transform="translate(2.122765, 117.267862)"><g><path d="M 37.5625 1.4375 C 30.925781 1.4375 24.503906 0.539062 18.296875 -1.25 C 12.097656 -3.050781 7.117188 -5.394531 3.359375 -8.28125 L 9.96875 -22.921875 C 13.5625 -20.285156 17.835938 -18.164062 22.796875 -16.5625 C 27.765625 -14.957031 32.726562 -14.15625 37.6875 -14.15625 C 43.207031 -14.15625 47.285156 -14.972656 49.921875 -16.609375 C 52.566406 -18.253906 53.890625 -20.4375 53.890625 -23.15625 C 53.890625 -25.15625 53.109375 -26.816406 51.546875 -28.140625 C 49.984375 -29.460938 47.984375 -30.523438 45.546875 -31.328125 C 43.109375 -32.128906 39.804688 -33.007812 35.640625 -33.96875 C 29.242188 -35.488281 24.003906 -37.007812 19.921875 -38.53125 C 15.835938 -40.050781 12.335938 -42.488281 9.421875 -45.84375 C 6.503906 -49.207031 5.046875 -53.6875 5.046875 -59.28125 C 5.046875 -64.164062 6.363281 -68.585938 9 -72.546875 C 11.644531 -76.503906 15.625 -79.644531 20.9375 -81.96875 C 26.257812 -84.289062 32.757812 -85.453125 40.4375 -85.453125 C 45.800781 -85.453125 51.039062 -84.8125 56.15625 -83.53125 C 61.28125 -82.25 65.765625 -80.410156 69.609375 -78.015625 L 63.609375 -63.25 C 55.847656 -67.644531 48.085938 -69.84375 40.328125 -69.84375 C 34.890625 -69.84375 30.867188 -68.960938 28.265625 -67.203125 C 25.660156 -65.441406 24.359375 -63.125 24.359375 -60.25 C 24.359375 -57.363281 25.859375 -55.222656 28.859375 -53.828125 C 31.859375 -52.429688 36.441406 -51.050781 42.609375 -49.6875 C 49.003906 -48.164062 54.242188 -46.644531 58.328125 -45.125 C 62.410156 -43.601562 65.910156 -41.203125 68.828125 -37.921875 C 71.742188 -34.640625 73.203125 -30.203125 73.203125 -24.609375 C 73.203125 -19.804688 71.863281 -15.421875 69.1875 -11.453125 C 66.507812 -7.492188 62.488281 -4.351562 57.125 -2.03125 C 51.769531 0.28125 45.25 1.4375 37.5625 1.4375 Z M 37.5625 1.4375 "/></g></g></g><g fill="#000000" fill-opacity="1"><g transform="translate(78.684312, 117.267862)"><g><path d="M 40.5625 -33 L 29.28125 -21.25 L 29.28125 0 L 9.96875 0 L 9.96875 -84.015625 L 29.28125 -84.015625 L 29.28125 -44.765625 L 66.484375 -84.015625 L 88.09375 -84.015625 L 53.28125 -46.5625 L 90.125 0 L 67.453125 0 Z M 40.5625 -33 "/></g></g></g><g fill="#000000" fill-opacity="1"><g transform="translate(167.486102, 117.267862)"><g><path d="M 47.28125 1.4375 C 35.28125 1.4375 25.9375 -1.878906 19.25 -8.515625 C 12.570312 -15.160156 9.234375 -24.644531 9.234375 -36.96875 L 9.234375 -84.015625 L 28.6875 -84.015625 L 28.6875 -37.6875 C 28.6875 -22.644531 34.925781 -15.125 47.40625 -15.125 C 53.488281 -15.125 58.128906 -16.941406 61.328125 -20.578125 C 64.523438 -24.222656 66.125 -29.925781 66.125 -37.6875 L 66.125 -84.015625 L 85.328125 -84.015625 L 85.328125 -36.96875 C 85.328125 -24.644531 81.984375 -15.160156 75.296875 -8.515625 C 68.617188 -1.878906 59.28125 1.4375 47.28125 1.4375 Z M 47.28125 1.4375 "/></g></g></g><g fill="#000000" fill-opacity="1"><g transform="translate(262.047999, 117.267862)"><g><path d="M 87.015625 -84.015625 L 87.015625 0 L 71.046875 0 L 29.15625 -51 L 29.15625 0 L 9.96875 0 L 9.96875 -84.015625 L 26.046875 -84.015625 L 67.8125 -33 L 67.8125 -84.015625 Z M 87.015625 -84.015625 "/></g></g></g><g fill="#000000" fill-opacity="1"><g transform="translate(359.00994, 117.267862)"><g><path d="M 40.5625 -33 L 29.28125 -21.25 L 29.28125 0 L 9.96875 0 L 9.96875 -84.015625 L 29.28125 -84.015625 L 29.28125 -44.765625 L 66.484375 -84.015625 L 88.09375 -84.015625 L 53.28125 -46.5625 L 90.125 0 L 67.453125 0 Z M 40.5625 -33 "/></g></g></g><g fill="#000000" fill-opacity="1"><g transform="translate(447.811729, 117.267862)"><g><path d="M 136.9375 -84.015625 L 109.453125 0 L 88.578125 0 L 70.09375 -56.890625 L 51 0 L 30.25 0 L 2.640625 -84.015625 L 22.796875 -84.015625 L 41.765625 -24.96875 L 61.5625 -84.015625 L 79.578125 -84.015625 L 98.765625 -24.484375 L 118.328125 -84.015625 Z M 136.9375 -84.015625 "/></g></g></g><g fill="#000000" fill-opacity="1"><g transform="translate(587.374548, 117.267862)"><g><path d="M 50.640625 1.4375 C 41.921875 1.4375 34.0625 -0.441406 27.0625 -4.203125 C 20.0625 -7.960938 14.582031 -13.140625 10.625 -19.734375 C 6.664062 -26.335938 4.6875 -33.757812 4.6875 -42 C 4.6875 -50.238281 6.664062 -57.660156 10.625 -64.265625 C 14.582031 -70.867188 20.0625 -76.050781 27.0625 -79.8125 C 34.0625 -83.570312 41.921875 -85.453125 50.640625 -85.453125 C 59.367188 -85.453125 67.210938 -83.570312 74.171875 -79.8125 C 81.128906 -76.050781 86.609375 -70.867188 90.609375 -64.265625 C 94.609375 -57.660156 96.609375 -50.238281 96.609375 -42 C 96.609375 -33.757812 94.609375 -26.335938 90.609375 -19.734375 C 86.609375 -13.140625 81.128906 -7.960938 74.171875 -4.203125 C 67.210938 -0.441406 59.367188 1.4375 50.640625 1.4375 Z M 50.640625 -15.125 C 55.609375 -15.125 60.09375 -16.265625 64.09375 -18.546875 C 68.09375 -20.828125 71.234375 -24.003906 73.515625 -28.078125 C 75.796875 -32.160156 76.9375 -36.800781 76.9375 -42 C 76.9375 -47.207031 75.796875 -51.847656 73.515625 -55.921875 C 71.234375 -60.003906 68.09375 -63.1875 64.09375 -65.46875 C 60.09375 -67.75 55.609375 -68.890625 50.640625 -68.890625 C 45.679688 -68.890625 41.203125 -67.75 37.203125 -65.46875 C 33.203125 -63.1875 30.0625 -60.003906 27.78125 -55.921875 C 25.5 -51.847656 24.359375 -47.207031 24.359375 -42 C 24.359375 -36.800781 25.5 -32.160156 27.78125 -28.078125 C 30.0625 -24.003906 33.203125 -20.828125 37.203125 -18.546875 C 41.203125 -16.265625 45.679688 -15.125 50.640625 -15.125 Z M 50.640625 -15.125 "/></g></g></g><g fill="#000000" fill-opacity="1"><g transform="translate(688.656577, 117.267862)"><g><path d="M 63.484375 0 L 47.28125 -23.40625 L 29.40625 -23.40625 L 29.40625 0 L 9.96875 0 L 9.96875 -84.015625 L 46.328125 -84.015625 C 53.765625 -84.015625 60.222656 -82.769531 65.703125 -80.28125 C 71.179688 -77.800781 75.398438 -74.28125 78.359375 -69.71875 C 81.328125 -65.164062 82.8125 -59.769531 82.8125 -53.53125 C 82.8125 -47.289062 81.3125 -41.910156 78.3125 -37.390625 C 75.3125 -32.867188 71.050781 -29.40625 65.53125 -27 L 84.375 0 Z M 63.125 -53.53125 C 63.125 -58.25 61.601562 -61.867188 58.5625 -64.390625 C 55.519531 -66.910156 51.082031 -68.171875 45.25 -68.171875 L 29.40625 -68.171875 L 29.40625 -38.890625 L 45.25 -38.890625 C 51.082031 -38.890625 55.519531 -40.164062 58.5625 -42.71875 C 61.601562 -45.28125 63.125 -48.882812 63.125 -53.53125 Z M 63.125 -53.53125 "/></g></g></g><g fill="#000000" fill-opacity="1"><g transform="translate(776.858355, 117.267862)"><g><path d="M 40.5625 -33 L 29.28125 -21.25 L 29.28125 0 L 9.96875 0 L 9.96875 -84.015625 L 29.28125 -84.015625 L 29.28125 -44.765625 L 66.484375 -84.015625 L 88.09375 -84.015625 L 53.28125 -46.5625 L 90.125 0 L 67.453125 0 Z M 40.5625 -33 "/></g></g></g><g fill="#000000" fill-opacity="1"><g transform="translate(865.660116, 117.267862)"><g><path d="M 37.5625 1.4375 C 30.925781 1.4375 24.503906 0.539062 18.296875 -1.25 C 12.097656 -3.050781 7.117188 -5.394531 3.359375 -8.28125 L 9.96875 -22.921875 C 13.5625 -20.285156 17.835938 -18.164062 22.796875 -16.5625 C 27.765625 -14.957031 32.726562 -14.15625 37.6875 -14.15625 C 43.207031 -14.15625 47.285156 -14.972656 49.921875 -16.609375 C 52.566406 -18.253906 53.890625 -20.4375 53.890625 -23.15625 C 53.890625 -25.15625 53.109375 -26.816406 51.546875 -28.140625 C 49.984375 -29.460938 47.984375 -30.523438 45.546875 -31.328125 C 43.109375 -32.128906 39.804688 -33.007812 35.640625 -33.96875 C 29.242188 -35.488281 24.003906 -37.007812 19.921875 -38.53125 C 15.835938 -40.050781 12.335938 -42.488281 9.421875 -45.84375 C 6.503906 -49.207031 5.046875 -53.6875 5.046875 -59.28125 C 5.046875 -64.164062 6.363281 -68.585938 9 -72.546875 C 11.644531 -76.503906 15.625 -79.644531 20.9375 -81.96875 C 26.257812 -84.289062 32.757812 -85.453125 40.4375 -85.453125 C 45.800781 -85.453125 51.039062 -84.8125 56.15625 -83.53125 C 61.28125 -82.25 65.765625 -80.410156 69.609375 -78.015625 L 63.609375 -63.25 C 55.847656 -67.644531 48.085938 -69.84375 40.328125 -69.84375 C 34.890625 -69.84375 30.867188 -68.960938 28.265625 -67.203125 C 25.660156 -65.441406 24.359375 -63.125 24.359375 -60.25 C 24.359375 -57.363281 25.859375 -55.222656 28.859375 -53.828125 C 31.859375 -52.429688 36.441406 -51.050781 42.609375 -49.6875 C 49.003906 -48.164062 54.242188 -46.644531 58.328125 -45.125 C 62.410156 -43.601562 65.910156 -41.203125 68.828125 -37.921875 C 71.742188 -34.640625 73.203125 -30.203125 73.203125 -24.609375 C 73.203125 -19.804688 71.863281 -15.421875 69.1875 -11.453125 C 66.507812 -7.492188 62.488281 -4.351562 57.125 -2.03125 C 51.769531 0.28125 45.25 1.4375 37.5625 1.4375 Z M 37.5625 1.4375 "/></g></g></g></g></g><g fill="#000000" fill-opacity="1"><g transform="translate(313.094448, 266.590946)"><g><path d="M 66.375 -22.4375 L 19.5625 -22.4375 L 9.484375 0 L 0.234375 0 L 38.640625 -84.015625 L 47.40625 -84.015625 L 85.8125 0 L 76.453125 0 Z M 63.125 -29.640625 L 42.96875 -74.765625 L 22.796875 -29.640625 Z M 63.125 -29.640625 "/></g></g></g><g fill="#000000" fill-opacity="1"><g transform="translate(399.141922, 266.590946)"><g><path d="M 50.171875 0.71875 C 41.847656 0.71875 34.34375 -1.117188 27.65625 -4.796875 C 20.976562 -8.484375 15.738281 -13.585938 11.9375 -20.109375 C 8.132812 -26.628906 6.234375 -33.925781 6.234375 -42 C 6.234375 -50.082031 8.132812 -57.382812 11.9375 -63.90625 C 15.738281 -70.425781 21 -75.523438 27.71875 -79.203125 C 34.445312 -82.890625 41.96875 -84.734375 50.28125 -84.734375 C 56.519531 -84.734375 62.28125 -83.691406 67.5625 -81.609375 C 72.84375 -79.523438 77.328125 -76.484375 81.015625 -72.484375 L 75.375 -66.84375 C 68.8125 -73.488281 60.53125 -76.8125 50.53125 -76.8125 C 43.882812 -76.8125 37.84375 -75.289062 32.40625 -72.25 C 26.96875 -69.207031 22.707031 -65.046875 19.625 -59.765625 C 16.539062 -54.484375 15 -48.5625 15 -42 C 15 -35.445312 16.539062 -29.53125 19.625 -24.25 C 22.707031 -18.96875 26.96875 -14.804688 32.40625 -11.765625 C 37.84375 -8.722656 43.882812 -7.203125 50.53125 -7.203125 C 60.613281 -7.203125 68.894531 -10.5625 75.375 -17.28125 L 81.015625 -11.640625 C 77.328125 -7.640625 72.820312 -4.578125 67.5 -2.453125 C 62.1875 -0.335938 56.410156 0.71875 50.171875 0.71875 Z M 50.171875 0.71875 "/></g></g></g><g fill="#000000" fill-opacity="1"><g transform="translate(485.429421, 266.590946)"><g><path d="M 66.375 -22.4375 L 19.5625 -22.4375 L 9.484375 0 L 0.234375 0 L 38.640625 -84.015625 L 47.40625 -84.015625 L 85.8125 0 L 76.453125 0 Z M 63.125 -29.640625 L 42.96875 -74.765625 L 22.796875 -29.640625 Z M 63.125 -29.640625 "/></g></g></g><g fill="#000000" fill-opacity="1"><g transform="translate(571.476883, 266.590946)"><g><path d="M 13.6875 -84.015625 L 47.890625 -84.015625 C 56.765625 -84.015625 64.601562 -82.234375 71.40625 -78.671875 C 78.207031 -75.109375 83.488281 -70.144531 87.25 -63.78125 C 91.007812 -57.425781 92.890625 -50.164062 92.890625 -42 C 92.890625 -33.84375 91.007812 -26.582031 87.25 -20.21875 C 83.488281 -13.863281 78.207031 -8.90625 71.40625 -5.34375 C 64.601562 -1.78125 56.765625 0 47.890625 0 L 13.6875 0 Z M 47.40625 -7.6875 C 54.769531 -7.6875 61.210938 -9.144531 66.734375 -12.0625 C 72.253906 -14.976562 76.53125 -19.015625 79.5625 -24.171875 C 82.601562 -29.335938 84.125 -35.28125 84.125 -42 C 84.125 -48.726562 82.601562 -54.671875 79.5625 -59.828125 C 76.53125 -64.984375 72.253906 -69.019531 66.734375 -71.9375 C 61.210938 -74.863281 54.769531 -76.328125 47.40625 -76.328125 L 22.5625 -76.328125 L 22.5625 -7.6875 Z M 47.40625 -7.6875 "/></g></g></g><g fill="#000000" fill-opacity="1"><g transform="translate(670.6055, 266.590946)"><g><path d="M 73.09375 -7.6875 L 73.09375 0 L 13.6875 0 L 13.6875 -84.015625 L 71.296875 -84.015625 L 71.296875 -76.328125 L 22.5625 -76.328125 L 22.5625 -46.453125 L 66.015625 -46.453125 L 66.015625 -38.890625 L 22.5625 -38.890625 L 22.5625 -7.6875 Z M 73.09375 -7.6875 "/></g></g></g><g fill="#000000" fill-opacity="1"><g transform="translate(750.892479, 266.590946)"><g><path d="M 100.9375 -84.015625 L 100.9375 0 L 92.40625 0 L 92.40625 -67.203125 L 59.40625 -10.6875 L 55.203125 -10.6875 L 22.203125 -66.84375 L 22.203125 0 L 13.6875 0 L 13.6875 -84.015625 L 21 -84.015625 L 57.484375 -21.71875 L 93.609375 -84.015625 Z M 100.9375 -84.015625 "/></g></g></g><g fill="#000000" fill-opacity="1"><g transform="translate(865.50246, 266.590946)"><g><path d="M 42.484375 -29.046875 L 42.484375 0 L 33.71875 0 L 33.71875 -29.046875 L 0.125 -84.015625 L 9.59375 -84.015625 L 38.40625 -36.84375 L 67.203125 -84.015625 L 76.09375 -84.015625 Z M 42.484375 -29.046875 "/></g></g></g><path fill="#000000" d="M 120.070312 63.664062 C 115.160156 64.132812 109.316406 65.4375 103.628906 67.335938 C 100.609375 68.339844 92.882812 72.089844 92.253906 72.851562 C 91.804688 73.402344 91.828125 73.835938 92.4375 76.257812 C 92.972656 78.386719 93.136719 80.292969 93.136719 84.457031 C 93.136719 92.40625 92.382812 95.648438 91.652344 90.832031 C 91.359375 88.882812 89.675781 84.464844 88.207031 81.773438 C 84.070312 74.195312 76.660156 68.21875 68.3125 65.722656 C 57.441406 62.476562 47.726562 63.8125 38.128906 69.871094 C 34.253906 72.316406 28.964844 78.417969 27.523438 82.105469 C 27.253906 82.800781 26.917969 83.535156 26.785156 83.730469 C 26.25 84.527344 25.003906 89.316406 24.640625 91.972656 C 23.753906 98.480469 24.621094 105.75 27.207031 113.542969 C 28.273438 116.746094 29.742188 119.496094 30.460938 119.632812 C 30.855469 119.707031 31.535156 119.023438 32.4375 117.644531 C 37.167969 110.429688 44.027344 104.582031 51.480469 101.40625 L 54.449219 100.140625 L 52.066406 102.601562 C 49.019531 105.753906 46.984375 108.234375 44.105469 112.3125 C 40.960938 116.765625 41.210938 116.332031 38.199219 122.414062 C 35.527344 127.808594 33.546875 133.125 32.414062 137.960938 L 31.4375 142.117188 C 29.402344 150.78125 29.65625 163.113281 32.058594 172.664062 C 33.515625 178.449219 34.148438 180.167969 37.050781 186.222656 C 41.027344 194.519531 46.746094 202.59375 48.238281 202.023438 C 49.105469 201.6875 48.992188 200.71875 47.769531 197.988281 C 46.546875 195.273438 44.890625 189.960938 43.921875 185.679688 C 43.40625 183.402344 43.273438 181.292969 43.292969 175.738281 C 43.3125 169.457031 43.421875 168.199219 44.300781 164.183594 C 47.542969 149.371094 54.390625 142.222656 66.019531 141.503906 C 73.882812 141.023438 83.773438 145.457031 90.3125 152.402344 C 95.625 158.042969 99.074219 164.660156 101.25 173.386719 C 104.570312 186.679688 104.570312 197.230469 101.253906 209.757812 C 100.066406 214.238281 100.839844 215.464844 102.996094 212.523438 C 104.933594 209.875 111.777344 202.714844 115.652344 199.277344 C 117.695312 197.464844 119.457031 195.984375 119.570312 195.984375 C 119.679688 195.984375 119.210938 196.753906 118.527344 197.699219 C 112.597656 205.894531 105.261719 221.886719 102.234375 233.21875 C 101.039062 237.683594 100.703125 239.367188 99.976562 244.605469 C 98.5 255.234375 101.09375 264.175781 107.710938 271.261719 C 109.386719 273.054688 114.574219 276.601562 115.519531 276.601562 C 115.832031 276.601562 116.472656 275.757812 116.988281 274.664062 C 119.269531 269.84375 124.402344 266.203125 129.414062 265.84375 C 135.664062 265.394531 141.097656 268.441406 143.800781 273.914062 C 144.765625 275.867188 145.320312 276.601562 145.828125 276.601562 C 146.503906 276.601562 149.375 274.871094 151.816406 273 C 155.007812 270.550781 158.972656 264.34375 160.59375 259.246094 C 161.382812 256.78125 161.457031 255.949219 161.421875 250.027344 C 161.386719 243.316406 160.972656 240.359375 159.070312 233.226562 C 156.082031 222.007812 149.207031 206.902344 143.140625 198.21875 C 142.539062 197.363281 142.121094 196.589844 142.210938 196.5 C 142.722656 195.992188 153.386719 206.546875 157.902344 212.035156 C 160.570312 215.273438 161.414062 214.675781 160.199219 210.410156 C 156.660156 197.960938 156.644531 184.878906 160.164062 172.847656 C 161.714844 167.539062 162.15625 166.347656 163.996094 162.542969 C 166.238281 157.90625 166.9375 156.914062 171.015625 152.570312 C 176.105469 147.144531 181.296875 144.039062 188.148438 142.324219 C 192.671875 141.191406 195.792969 141.140625 199.679688 142.132812 C 203.496094 143.109375 206.144531 144.632812 209.035156 147.523438 C 212.726562 151.210938 215.347656 156.492188 216.578125 162.722656 C 216.796875 163.816406 217.214844 165.964844 217.511719 167.5 C 218.128906 170.675781 218.234375 181.074219 217.675781 183.691406 C 217.484375 184.585938 217.160156 186.265625 216.957031 187.421875 C 216.472656 190.144531 214.304688 196.625 212.910156 199.496094 C 211.828125 201.726562 211.777344 202.851562 212.757812 202.851562 C 213.039062 202.851562 214.160156 201.753906 215.246094 200.410156 C 223.148438 190.65625 227.847656 180.433594 230.246094 167.785156 C 231.003906 163.789062 231.101562 148.667969 230.394531 144.648438 C 229.082031 137.171875 225.679688 126.859375 222.765625 121.511719 C 222.167969 120.417969 221.515625 119.144531 221.3125 118.679688 C 219.980469 115.648438 213.085938 106.453125 208.699219 101.867188 L 207.027344 100.117188 L 208.292969 100.652344 C 209.800781 101.292969 213.242188 102.96875 214.257812 103.558594 C 219.007812 106.324219 225.355469 112.285156 228.371094 116.804688 C 229.363281 118.296875 230.449219 119.566406 230.785156 119.632812 C 231.894531 119.84375 234.355469 113.835938 235.804688 107.367188 C 236.9375 102.316406 237.046875 91.503906 235.996094 88.070312 C 234.839844 84.285156 233.894531 82.109375 232.140625 79.191406 C 230.140625 75.859375 228.917969 74.484375 225.40625 71.589844 C 216.53125 64.28125 204.992188 62.1875 193.117188 65.738281 C 185.226562 68.09375 177.847656 73.851562 173.519531 81.019531 C 171.179688 84.902344 169.292969 90.253906 169.257812 93.101562 C 169.234375 94.902344 168.863281 93.890625 168.320312 90.550781 C 167.484375 85.402344 167.824219 79.695312 169.265625 74.710938 C 169.648438 73.390625 169.613281 73.226562 168.828125 72.582031 C 166.691406 70.828125 158.390625 67.320312 152.972656 65.882812 C 145.375 63.867188 143.492188 63.640625 133.085938 63.5 C 127.617188 63.429688 121.761719 63.5 120.070312 63.664062 M 99.519531 117.089844 C 107.757812 123.964844 116.816406 135.554688 122.039062 145.917969 C 123.441406 148.703125 124.78125 151.46875 125.015625 152.0625 C 127.09375 157.378906 127.699219 159.105469 128.554688 162.179688 C 128.886719 163.375 129.394531 165.113281 129.679688 166.042969 C 129.960938 166.976562 130.195312 168.066406 130.195312 168.464844 C 130.195312 169.777344 130.835938 169.613281 131.082031 168.234375 C 131.566406 165.515625 134.609375 155.96875 136.117188 152.421875 C 137.269531 149.699219 140.144531 143.980469 141.382812 141.9375 C 141.984375 140.941406 142.59375 139.890625 142.734375 139.597656 C 143.351562 138.308594 147.1875 132.9375 150.042969 129.367188 C 151.753906 127.226562 155.296875 123.363281 157.917969 120.78125 C 160.535156 118.199219 162.636719 116.085938 162.585938 116.085938 C 162.535156 116.085938 161.449219 116.429688 160.171875 116.847656 C 151.773438 119.601562 141.410156 125.109375 133.890625 130.808594 C 132.246094 132.058594 130.808594 133.078125 130.699219 133.078125 C 130.589844 133.078125 129.335938 132.210938 127.90625 131.152344 C 118.527344 124.1875 109.910156 119.640625 100.0625 116.464844 L 97.949219 115.78125 Z M 62.46875 163.683594 C 61.972656 164.179688 63.265625 169.921875 64.925781 174.609375 C 65.984375 177.582031 68.058594 181.855469 69.25 183.507812 C 69.679688 184.105469 70.246094 185.027344 70.507812 185.558594 C 71.332031 187.210938 75.765625 192.488281 78.175781 194.683594 C 82.550781 198.664062 90.808594 203.9375 92.664062 203.9375 C 93.683594 203.9375 93.765625 203.242188 93.121094 200.109375 C 91.109375 190.320312 86.335938 181.714844 78.695312 174.109375 C 72.25 167.695312 63.851562 162.296875 62.46875 163.683594 M 194.597656 164.910156 C 188.679688 168.117188 180.449219 175.464844 176.875 180.738281 C 172.976562 186.484375 170.957031 190.660156 169.09375 196.796875 C 167.871094 200.832031 167.691406 203.671875 168.652344 203.867188 C 170.546875 204.253906 180.980469 197.3125 185.203125 192.855469 C 189.011719 188.832031 193.609375 181.6875 195.773438 176.429688 C 197.421875 172.421875 198.960938 166.625 198.820312 164.945312 C 198.667969 163.136719 197.882812 163.128906 194.597656 164.910156 M 20.746094 177.273438 C 19.796875 178.515625 17.460938 186.496094 16.300781 192.46875 C 15.269531 197.777344 15.265625 209.925781 16.296875 214.929688 C 17.835938 222.398438 19.578125 227.386719 22.753906 233.398438 C 24.316406 236.355469 25.035156 237.375 25.550781 237.375 C 26.152344 237.375 26.257812 237.078125 26.324219 235.207031 C 26.433594 232.25 27.167969 227.074219 27.480469 227.074219 C 27.753906 227.074219 29.933594 229.925781 30.691406 231.285156 C 31.558594 232.828125 36.96875 238.265625 39.757812 240.386719 C 44.988281 244.371094 53.695312 248.761719 56.359375 248.761719 C 57.613281 248.765625 57.675781 247.957031 56.648438 245.101562 C 55.851562 242.878906 55.40625 240.085938 55.847656 240.085938 C 56.761719 240.085938 64.378906 242.722656 67.613281 244.15625 C 73.585938 246.808594 77.289062 249.152344 83.820312 254.414062 C 85.074219 255.421875 86.085938 255.355469 86.085938 254.261719 C 86.085938 253.042969 82.96875 247.1875 80.65625 244.0625 C 78.140625 240.664062 74.035156 236.488281 71.796875 235.054688 C 71 234.542969 69.777344 233.695312 69.085938 233.171875 C 68.394531 232.648438 67.09375 231.832031 66.199219 231.359375 C 63.054688 229.699219 52.246094 223.035156 49.207031 220.886719 C 40.824219 214.964844 34.882812 209.042969 30.625 202.355469 C 26.953125 196.59375 23.746094 187.484375 22.800781 180.140625 C 22.613281 178.6875 22.367188 177.34375 22.253906 177.160156 C 21.957031 176.679688 21.152344 176.742188 20.746094 177.273438 M 239.015625 177.75 C 238.820312 178.261719 238.664062 179.234375 238.664062 179.914062 C 238.664062 181.136719 238.386719 182.550781 237.320312 186.765625 C 234.984375 196.007812 229.832031 205.15625 223.269531 211.714844 C 217.867188 217.113281 208.15625 224.121094 199.65625 228.753906 C 189.230469 234.441406 183.5 239.367188 179.105469 246.414062 C 176.957031 249.855469 175.027344 253.792969 175.027344 254.730469 C 175.027344 255.992188 176.160156 255.640625 178.511719 253.644531 C 179.84375 252.515625 181.582031 251.15625 182.378906 250.628906 C 187.949219 246.921875 191.109375 245.203125 196 243.214844 C 198.617188 242.152344 200.105469 241.664062 205.128906 240.21875 C 205.625 240.078125 205.761719 240.257812 205.757812 241.058594 C 205.757812 242.511719 205.125 244.746094 204.265625 246.339844 C 202.859375 248.949219 203.976562 249.359375 208.265625 247.820312 C 213.644531 245.890625 218.460938 243.050781 223.296875 238.972656 C 227.019531 235.828125 228.289062 234.476562 231.253906 230.507812 C 232.589844 228.71875 233.808594 227.207031 233.964844 227.144531 C 234.285156 227.023438 235.007812 231.972656 235.140625 235.203125 C 235.265625 238.3125 236.011719 238.292969 237.816406 235.136719 C 239.472656 232.238281 241.917969 226.945312 241.917969 226.253906 C 241.917969 225.988281 242.0625 225.617188 242.242188 225.429688 C 242.660156 224.992188 244.808594 217.460938 244.808594 216.445312 C 244.808594 216.027344 245.050781 214.546875 245.34375 213.15625 C 245.707031 211.445312 245.882812 208.457031 245.882812 203.9375 C 245.886719 197.6875 245.480469 193.769531 244.246094 188.128906 C 243.832031 186.226562 241.074219 177.726562 240.730469 177.273438 C 240.164062 176.539062 239.394531 176.753906 239.015625 177.75 " fill-opacity="1" fill-rule="evenodd"/></svg>